<svg width="512" height="512" viewBox="0 0 512 512" xmlns="http://www.w3.org/2000/svg">
  <rect width="512" height="512" rx="116" fill="#3B5D4E"/>
  <g fill="#F7F4EE">
    <!-- oil droplet -->
    <path d="M256 150c0 0 100 116 100 192a100 100 0 1 1-200 0c0-76 100-192 100-192z"/>
    <!-- stem -->
    <rect x="250" y="104" width="12" height="54" rx="6"/>
    <!-- right leaf -->
    <path d="M256 132c34-16 60-42 74-78-38 8-66 30-82 62 4 6 8 12 8 16z"/>
    <!-- left leaf -->
    <path d="M256 132c-34-16-60-42-74-78 38 8 66 30 82 62-4 6-8 12-8 16z"/>
  </g>
  <!-- droplet highlight -->
  <circle cx="220" cy="318" r="22" fill="#3B5D4E"/>
</svg>
